P3
# small example
4 4
255
255 128 255  255 255 255  255 128 255  255 255 255
128 064 128  128 128 128  128 064 128  128 128 128
064 032 064  064 064 064  064 032 064  064 064 064
032 255 032  032 032 032  032 255 032  032 032 032
