P3
3 3
255
255 255 255   191 191 191     0   0   0
128 128 128    64  64  64   100 100 100
255 255 255   255 255 255     0   0   0