P3
2 2
255
255 255 255   191 191 191
128 128 128    64  64  64